<svg xmlns="http://www.w3.org/2000/svg" width="144" height="144" style="shape-rendering:geometricPrecision;text-rendering:geometricPrecision;image-rendering:optimizeQuality;fill-rule:evenodd;clip-rule:evenodd"><path style="opacity:1" fill="#fefefe" d="M-.5-.5h144v144H-.5V-.5Z"/><path style="opacity:1" fill="#c8282d" d="M114.5 103.5c-3.607 1.324-7.607 1.991-12 2-4.715-.057-9.382-.39-14-1a627.99 627.99 0 0 1-16-25.5c-.95-.617-1.782-.45-2.5.5a112.802 112.802 0 0 1-6.5 10h-3l-2 10c3.542.313 6.875-.02 10-1 1.333-.667 1.333-1.333 0-2-1.647-4.376-.647-8.043 3-11a72.843 72.843 0 0 1 10 17v3c-12.712.646-25.045-.02-37-2a854.354 854.354 0 0 1 27-43 1074.525 1074.525 0 0 1 24 37c1.667 1.333 3.333 1.333 5 0-9.67-14.676-19.337-29.343-29-44-11.01 17.34-22.01 34.673-33 52h-9v-3a1108.99 1108.99 0 0 1 42-65 1709.168 1709.168 0 0 1 43 66Z"/><path style="opacity:1" fill="#fbefed" d="M44.5 103.5c-.978.311-1.645.978-2 2a400.775 400.775 0 0 0 40 1 2330.67 2330.67 0 0 1-41 2c.38-3.067-.62-4.067-3-3 10.99-17.327 21.99-34.66 33-52 9.663 14.657 19.33 29.324 29 44-1.667 1.333-3.333 1.333-5 0a1074.525 1074.525 0 0 0-24-37 854.354 854.354 0 0 0-27 43Z"/><path style="opacity:1" fill="#fbefed" d="M88.5 104.5c.11.617.444 1.117 1 1.5 8.66.5 17.327.666 26 .5.131.876-.202 1.543-1 2l-27-2c-1.034 2.625-2.034 2.625-3 0-.526-1.73-1.526-3.064-3-4a72.843 72.843 0 0 0-10-17c-3.647 2.957-4.647 6.624-3 11-2.667 1.333-5.333 1.333-8 0a32.897 32.897 0 0 1 3-7 112.802 112.802 0 0 0 6.5-10c.718-.95 1.55-1.117 2.5-.5a627.99 627.99 0 0 0 16 25.5Z"/><path style="opacity:1" fill="#f9aead" d="M60.5 96.5c2.667 1.333 5.333 1.333 8 0 1.333.667 1.333 1.333 0 2a21.12 21.12 0 0 1-9-1c.124-.607.457-.94 1-1Z"/><path style="opacity:1" fill="#b63436" d="M63.5 89.5a32.897 32.897 0 0 0-3 7c-.543.06-.876.393-1 1a21.12 21.12 0 0 0 9 1c-3.125.98-6.458 1.313-10 1l2-10h3Z"/><path style="opacity:1" fill="#a74245" d="M81.5 102.5c1.474.936 2.474 2.27 3 4h-2a400.775 400.775 0 0 1-40-1c.355-1.022 1.022-1.689 2-2 11.955 1.98 24.288 2.646 37 2v-3Z"/><path style="opacity:1" fill="#af4e54" d="M29.5 102.5v3h9c-3.811 1.145-7.811 1.312-12 .5.663-1.518 1.663-2.685 3-3.5Z"/><path style="opacity:1" fill="#a64848" d="M114.5 103.5c.767.672 1.434 1.505 2 2.5-.228.399-.562.565-1 .5-8.673.166-17.34 0-26-.5-.556-.383-.89-.883-1-1.5 4.618.61 9.285.943 14 1 4.393-.009 8.393-.676 12-2Z"/></svg>